<?xml version="1.0" standalone="no"?>
<!DOCTYPE svg PUBLIC "-//W3C//DTD SVG 20010904//EN"
 "http://www.w3.org/TR/2001/REC-SVG-20010904/DTD/svg10.dtd">
<svg version="1.0" xmlns="http://www.w3.org/2000/svg"
 width="82.000000pt" height="82.000000pt" viewBox="0 0 82.000000 82.000000"
 preserveAspectRatio="xMidYMid meet">
<metadata>
Created by potrace 1.11, written by Peter Selinger 2001-2013
</metadata>
<g transform="translate(0.000000,82.000000) scale(0.100000,-0.100000)"
fill="#000000" stroke="none">
<path d="M391 753 c7 -10 14 -20 16 -22 1 -2 1 6 0 18 -1 11 -8 21 -15 21 -12
0 -12 -3 -1 -17z"/>
<path d="M390 694 c0 -14 -4 -23 -10 -19 -5 3 -10 -1 -10 -9 0 -20 -9 -20 -32
1 -17 15 -18 15 -18 -5 0 -11 5 -24 10 -27 14 -9 12 -31 -2 -34 -7 -1 -74 -5
-149 -8 l-135 -4 4 -29 c3 -23 0 -29 -18 -32 -21 -3 -21 -3 -3 -24 16 -19 18
-40 18 -165 0 -142 0 -144 -22 -147 -22 -3 -23 -8 -23 -98 l0 -94 410 0 410 0
0 95 0 95 -30 0 c-34 0 -33 -7 -30 155 0 50 1 105 0 123 0 20 5 35 15 38 21 9
19 21 -6 27 -17 5 -20 11 -15 31 l6 25 -132 4 c-73 3 -139 6 -145 8 -14 2 -18
29 -5 29 4 0 8 11 8 25 2 31 -3 31 -27 3 -11 -14 -19 -18 -20 -10 -3 22 -4 27
-12 40 -5 6 -5 12 0 12 10 0 -19 20 -29 20 -5 0 -8 -12 -8 -26z m-20 -81 c0
-19 -13 -9 -16 12 -1 8 2 13 7 9 5 -3 9 -12 9 -21z m50 -3 c0 -5 -9 -6 -20 -3
-11 3 -20 9 -20 13 0 5 9 6 20 3 11 -3 20 -9 20 -13z m34 5 c-4 -8 -10 -15
-15 -15 -4 0 -6 7 -3 15 4 8 10 15 15 15 4 0 6 -7 3 -15z m-294 -230 c1 -33 1
-90 1 -127 l-1 -68 -35 0 -35 0 0 129 0 130 28 3 c15 2 30 1 34 -2 4 -3 7 -32
8 -65z m130 -66 l0 -130 -42 3 -42 3 0 125 0 125 34 6 c19 3 38 3 43 1 4 -2 7
-62 7 -133z m160 132 c13 -1 16 -21 16 -131 l0 -130 -62 0 c-41 0 -63 4 -66
13 -2 6 -4 64 -3 127 l0 115 30 5 c17 3 39 5 50 4 11 -1 27 -3 35 -3z m145
-131 l1 -130 -43 0 -43 0 0 130 0 130 43 0 42 0 0 -130z m116 108 c1 -13 1
-70 1 -128 l0 -105 -36 -3 -36 -3 1 130 2 131 33 0 c28 0 34 -4 35 -22z"/>
</g>
</svg>
